<svg xmlns="http://www.w3.org/2000/svg" width="200" height="200" viewBox="0 0 200 200" version="1.1"><path d="M 97.750 7.706 C 98.987 7.944, 101.013 7.944, 102.250 7.706 C 103.487 7.467, 102.475 7.272, 100 7.272 C 97.525 7.272, 96.513 7.467, 97.750 7.706 M 86.813 8.683 C 87.534 8.972, 88.397 8.936, 88.729 8.604 C 89.061 8.272, 88.471 8.036, 87.417 8.079 C 86.252 8.127, 86.015 8.364, 86.813 8.683 M 111.813 8.683 C 112.534 8.972, 113.397 8.936, 113.729 8.604 C 114.061 8.272, 113.471 8.036, 112.417 8.079 C 111.252 8.127, 111.015 8.364, 111.813 8.683 M 88.814 12.078 C 72.659 14.448, 56.966 21.158, 44.603 30.982 C 21.338 49.470, 8.266 81.211, 12.011 110.117 C 13.574 122.175, 16.126 130.408, 21.603 141.058 C 33.410 164.017, 54.482 180.287, 80.647 186.647 C 90.390 189.015, 109.260 189.025, 119.311 186.668 C 153.091 178.746, 178.746 153.091, 186.668 119.311 C 189.025 109.260, 189.015 90.390, 186.647 80.647 C 180.375 54.842, 164.127 33.572, 141.821 21.967 C 131.253 16.469, 124.318 14.181, 113 12.458 C 102.646 10.882, 97.518 10.801, 88.814 12.078 M 92.517 17.982 C 90.324 20.404, 90.783 24.749, 94.493 36.689 C 97.135 45.190, 98.734 46.854, 102.969 45.510 C 105.225 44.794, 106.301 41.557, 108.687 28.308 C 110.790 16.629, 110.399 16, 101.033 16 C 95.601 16, 93.966 16.380, 92.517 17.982 M 71.250 23.293 C 67.510 25.512, 66 27.027, 66 28.559 C 66 31.114, 83.088 49, 85.530 49 C 88.293 49, 91 47.009, 91 44.977 C 91 41.360, 84.880 23.880, 82.931 21.931 C 80.292 19.292, 77.431 19.626, 71.250 23.293 M 118.075 21.925 C 117.016 22.984, 114.557 28.722, 112.611 34.675 L 109.072 45.500 111.147 47.250 C 112.288 48.212, 113.968 49, 114.881 49 C 116.990 49, 135 30.995, 135 28.886 C 135 26.885, 132.623 24.798, 127.290 22.117 C 122.093 19.504, 120.528 19.472, 118.075 21.925 M 40.872 28.750 C 39.629 30.336, 39.664 30.371, 41.250 29.128 C 42.212 28.373, 43 27.585, 43 27.378 C 43 26.555, 42.179 27.084, 40.872 28.750 M 50.576 36.923 C 47.607 39.938, 45.945 42.414, 46.289 43.311 C 46.900 44.903, 61.582 54.880, 67.391 57.650 C 70.910 59.328, 71.035 59.315, 73.449 57.048 C 75.781 54.857, 75.832 54.577, 74.409 51.824 C 71.681 46.549, 63.760 34.523, 62.174 33.250 C 59.032 30.726, 55.613 31.809, 50.576 36.923 M 137.821 34.277 C 136.706 35.529, 133.354 40.570, 130.373 45.481 L 124.953 54.408 127.355 56.810 C 129.074 58.528, 130.365 59.019, 131.892 58.534 C 135.722 57.319, 155 44.070, 155 42.654 C 155 41.895, 152.769 39.187, 150.043 36.637 C 144.407 31.366, 141 30.708, 137.821 34.277 M 27.872 41.750 C 26.629 43.336, 26.664 43.371, 28.250 42.128 C 29.916 40.821, 30.445 40, 29.622 40 C 29.415 40, 28.627 40.788, 27.872 41.750 M 37.214 47.786 C 33.088 51.912, 29.811 57.064, 30.376 58.537 C 31.081 60.376, 52.550 70.977, 55.595 70.991 C 57.617 71, 61 68.204, 61 66.524 C 61 65.474, 54.930 57.982, 48.626 51.250 C 43.323 45.587, 40.323 44.677, 37.214 47.786 M 154.042 49.250 C 149.150 54.227, 140 65.601, 140 66.706 C 140 68.308, 143.506 71.001, 145.579 70.991 C 148.499 70.977, 169.942 60.314, 170.624 58.537 C 171.189 57.064, 167.912 51.912, 163.786 47.786 C 161.083 45.083, 157.628 45.603, 154.042 49.250 M 25.096 66.750 C 22.529 68.863, 19.985 79.385, 21.641 81.041 C 22.219 81.619, 28.306 82.541, 35.168 83.089 C 49.926 84.269, 53 83.594, 53 79.177 C 53 76.536, 52.123 75.849, 42.121 70.652 C 30.357 64.540, 28.341 64.078, 25.096 66.750 M 158.750 70.682 C 148.890 75.846, 148 76.550, 148 79.181 C 148 83.594, 151.078 84.268, 165.832 83.089 C 172.694 82.541, 178.781 81.619, 179.359 81.041 C 181.015 79.385, 178.471 68.863, 175.904 66.750 C 172.650 64.071, 170.378 64.592, 158.750 70.682 M 69.229 68.669 C 68.530 68.951, 67.307 70.439, 66.512 71.977 L 65.066 74.773 101.063 104.637 C 120.861 121.062, 137.618 134.626, 138.299 134.779 C 140.183 135.203, 142.929 132.760, 143.231 130.391 C 143.445 128.714, 136.081 122.116, 107.238 98.141 C 87.294 81.564, 70.869 68.036, 70.738 68.079 C 70.607 68.122, 69.928 68.388, 69.229 68.669 M 115.766 79.314 C 101.150 89.593, 100.144 90.501, 101.595 92.105 C 103.054 93.717, 104.151 93.098, 118.090 82.802 C 126.303 76.736, 133.237 71.425, 133.500 71 C 133.763 70.575, 133.420 69.782, 132.739 69.238 C 131.850 68.529, 127.050 71.379, 115.766 79.314 M 122.100 85.167 C 114.314 91.309, 108.096 96.789, 108.282 97.345 C 108.467 97.902, 109.323 98.801, 110.182 99.343 C 112.469 100.785, 139.531 77.345, 137.878 75.353 C 137.261 74.609, 136.643 74, 136.505 74 C 136.367 74, 129.885 79.025, 122.100 85.167 M 191.079 86.583 C 191.127 87.748, 191.364 87.985, 191.683 87.188 C 191.972 86.466, 191.936 85.603, 191.604 85.271 C 191.272 84.939, 191.036 85.529, 191.079 86.583 M 8.079 87.583 C 8.127 88.748, 8.364 88.985, 8.683 88.188 C 8.972 87.466, 8.936 86.603, 8.604 86.271 C 8.272 85.939, 8.036 86.529, 8.079 87.583 M 21.184 88.584 C 19.330 89.882, 19 91.070, 19 96.434 C 19 105.466, 19.509 105.693, 32.682 102.553 C 47.712 98.970, 49 98.367, 49 94.917 C 49 91.708, 47.308 91.018, 34.500 88.999 C 30.650 88.393, 26.570 87.707, 25.434 87.475 C 24.297 87.244, 22.385 87.743, 21.184 88.584 M 164.547 89.655 C 154.077 91.167, 152 92.068, 152 95.099 C 152 97.811, 155.310 99.523, 166.282 102.488 C 179.703 106.114, 180.313 105.952, 181.264 98.500 C 181.985 92.846, 181.882 92.370, 179.459 90.250 C 178.045 89.013, 176.351 88.049, 175.694 88.108 C 175.037 88.168, 170.021 88.864, 164.547 89.655 M 192.320 100 C 192.320 103.575, 192.502 105.037, 192.723 103.250 C 192.945 101.463, 192.945 98.537, 192.723 96.750 C 192.502 94.963, 192.320 96.425, 192.320 100 M 7.272 100 C 7.272 102.475, 7.467 103.487, 7.706 102.250 C 7.944 101.013, 7.944 98.987, 7.706 97.750 C 7.467 96.513, 7.272 97.525, 7.272 100 M 80 104.626 C 62.962 116.939, 62.282 117.857, 61.038 130.200 C 60.129 139.218, 58.753 141.354, 53.943 141.217 C 50.079 141.108, 43.163 145.441, 41.900 148.762 C 41.376 150.141, 40.272 151.052, 39.251 150.948 C 35.440 150.560, 34.680 150.910, 35.968 152.461 C 38.550 155.572, 40.842 155.213, 47.234 150.697 C 50.680 148.261, 54.021 146.457, 54.657 146.687 C 55.293 146.917, 57.445 146.423, 59.439 145.590 C 62.090 144.482, 63.587 142.923, 65.010 139.788 C 66.080 137.429, 66.966 134.740, 66.978 133.811 C 66.990 132.882, 68.800 130.042, 71 127.500 C 73.742 124.331, 75 121.939, 75 119.891 C 75 116.591, 76.440 114.999, 87.318 106.275 C 93.878 101.013, 94.070 100.735, 92.413 98.903 C 91.465 97.857, 90.647 97.008, 90.595 97.018 C 90.543 97.029, 85.775 100.452, 80 104.626 M 87.864 112.213 C 80.303 118.167, 76.931 121.541, 75.398 124.687 L 73.295 129 75.906 129 C 77.781 129, 81.975 126.024, 90.783 118.444 C 97.529 112.638, 102.788 107.466, 102.469 106.950 C 102.150 106.433, 101.065 105.570, 100.058 105.031 C 98.559 104.229, 96.347 105.532, 87.864 112.213 M 8.079 112.583 C 8.127 113.748, 8.364 113.985, 8.683 113.188 C 8.972 112.466, 8.936 111.603, 8.604 111.271 C 8.272 110.939, 8.036 111.529, 8.079 112.583 M 146.106 122.688 C 143.986 125.259, 143.366 126.736, 144.055 127.566 C 146.387 130.376, 140.944 136.960, 137.411 135.604 C 135.794 134.984, 129.070 141.661, 129.027 143.929 C 128.991 145.821, 131.252 152.016, 131.951 151.942 C 132.591 151.874, 158.338 121.153, 158.833 119.866 C 159.017 119.390, 156.912 119, 154.156 119 C 149.597 119, 148.871 119.333, 146.106 122.688 M 66.986 121.517 C 65.888 122.840, 65.944 123.372, 67.329 124.757 C 69.276 126.705, 71.399 125.304, 70.844 122.439 C 70.376 120.027, 68.579 119.597, 66.986 121.517 M 146.515 136.753 L 132.656 153.378 138.078 158.178 C 141.060 160.818, 143.762 162.983, 144.083 162.989 C 144.579 162.998, 164.629 139.556, 170.410 132.206 C 172.314 129.786, 172.313 129.744, 170.278 128.130 C 169.147 127.234, 166.456 125.066, 164.298 123.314 L 160.374 120.128 146.515 136.753 M 49.476 124.396 C 46.332 125.766, 44.021 129.503, 43.971 133.297 C 43.951 134.821, 42.101 136.836, 37.971 139.834 C 32.229 144.003, 31.084 146.008, 32.854 148.797 C 33.511 149.834, 33.935 149.783, 34.961 148.547 C 35.667 147.696, 35.910 147, 35.500 147 C 35.090 147, 35.293 146.352, 35.951 145.559 C 36.608 144.767, 37.793 144.367, 38.584 144.671 C 39.382 144.977, 41.978 143.620, 44.413 141.625 C 48.199 138.522, 48.789 137.529, 48.700 134.398 C 48.573 129.925, 51.073 127.778, 55.931 128.190 C 58.932 128.445, 59.453 128.138, 60.094 125.740 C 60.808 123.071, 60.719 123.001, 56.664 123.039 C 54.374 123.061, 51.139 123.671, 49.476 124.396 M 103.547 138.458 C 105.428 142.961, 105.391 146.996, 103.443 149.777 C 100.287 154.284, 97.245 151.860, 96.326 144.106 C 95.994 141.298, 95.385 139, 94.975 139 C 94.564 139, 93.458 140.623, 92.517 142.606 C 90.866 146.084, 90.870 147.451, 92.553 155.661 C 93.079 158.227, 92.810 159.032, 91.123 159.934 C 88.025 161.592, 84.569 157.906, 85.387 153.815 C 86.110 150.202, 84.536 150.401, 81.634 154.289 C 79.829 156.707, 79.756 157.432, 80.849 162.166 C 83.320 172.871, 90.798 178.501, 101.630 177.811 C 106.822 177.480, 108.590 176.873, 111.713 174.349 C 116.527 170.458, 118.741 166.663, 119.501 160.995 L 120.105 156.500 118.520 159.250 C 116.875 162.107, 112.768 163.052, 111.427 160.883 C 111.048 160.268, 111.312 157.369, 112.014 154.441 C 113.061 150.076, 113.053 148.542, 111.969 145.926 C 110.409 142.159, 106.538 137.358, 103.939 135.967 C 102.190 135.031, 102.170 135.162, 103.547 138.458 M 171.872 157.750 C 170.629 159.336, 170.664 159.371, 172.250 158.128 C 173.916 156.821, 174.445 156, 173.622 156 C 173.415 156, 172.627 156.787, 171.872 157.750 M 164.946 165.750 L 161.500 169.500 165.250 166.054 C 168.740 162.846, 169.460 162, 168.696 162 C 168.529 162, 166.842 163.688, 164.946 165.750 M 156.872 172.750 C 155.629 174.336, 155.664 174.371, 157.250 173.128 C 158.916 171.821, 159.445 171, 158.622 171 C 158.415 171, 157.627 171.787, 156.872 172.750 M 85.813 191.683 C 86.534 191.972, 87.397 191.936, 87.729 191.604 C 88.061 191.272, 87.471 191.036, 86.417 191.079 C 85.252 191.127, 85.015 191.364, 85.813 191.683 M 96.750 192.723 C 98.537 192.945, 101.463 192.945, 103.250 192.723 C 105.037 192.502, 103.575 192.320, 100 192.320 C 96.425 192.320, 94.963 192.502, 96.750 192.723" stroke="none" fill="#f7f7f7" fill-rule="evenodd"/><path d="M 82.633 9.486 C 47.288 16.851, 20.332 42.009, 10.827 76.500 C 8.975 83.222, 8.625 87.057, 8.639 100.500 C 8.654 114.975, 8.911 117.338, 11.337 125.297 C 19.493 152.054, 36.461 171.852, 61.133 183.401 C 73.908 189.380, 81.192 191.089, 96.581 191.716 C 116.819 192.541, 132.243 188.571, 149 178.225 C 158.608 172.292, 172.292 158.608, 178.225 149 C 188.571 132.243, 192.541 116.819, 191.716 96.581 C 191.089 81.192, 189.380 73.908, 183.401 61.133 C 171.831 36.416, 151.771 19.251, 125.297 11.414 C 114.247 8.143, 93.562 7.209, 82.633 9.486 M 88.814 12.078 C 72.659 14.448, 56.966 21.158, 44.603 30.982 C 21.338 49.470, 8.266 81.211, 12.011 110.117 C 13.574 122.175, 16.126 130.408, 21.603 141.058 C 33.410 164.017, 54.482 180.287, 80.647 186.647 C 90.390 189.015, 109.260 189.025, 119.311 186.668 C 153.091 178.746, 178.746 153.091, 186.668 119.311 C 189.025 109.260, 189.015 90.390, 186.647 80.647 C 180.375 54.842, 164.127 33.572, 141.821 21.967 C 131.253 16.469, 124.318 14.181, 113 12.458 C 102.646 10.882, 97.518 10.801, 88.814 12.078 M 92.517 17.982 C 90.324 20.404, 90.783 24.749, 94.493 36.689 C 97.135 45.190, 98.734 46.854, 102.969 45.510 C 105.225 44.794, 106.301 41.557, 108.687 28.308 C 110.790 16.629, 110.399 16, 101.033 16 C 95.601 16, 93.966 16.380, 92.517 17.982 M 71.250 23.293 C 67.510 25.512, 66 27.027, 66 28.559 C 66 31.114, 83.088 49, 85.530 49 C 88.293 49, 91 47.009, 91 44.977 C 91 41.360, 84.880 23.880, 82.931 21.931 C 80.292 19.292, 77.431 19.626, 71.250 23.293 M 118.075 21.925 C 117.016 22.984, 114.557 28.722, 112.611 34.675 L 109.072 45.500 111.147 47.250 C 112.288 48.212, 113.968 49, 114.881 49 C 116.990 49, 135 30.995, 135 28.886 C 135 26.885, 132.623 24.798, 127.290 22.117 C 122.093 19.504, 120.528 19.472, 118.075 21.925 M 50.576 36.923 C 47.607 39.938, 45.945 42.414, 46.289 43.311 C 46.900 44.903, 61.582 54.880, 67.391 57.650 C 70.910 59.328, 71.035 59.315, 73.449 57.048 C 75.781 54.857, 75.832 54.577, 74.409 51.824 C 71.681 46.549, 63.760 34.523, 62.174 33.250 C 59.032 30.726, 55.613 31.809, 50.576 36.923 M 137.821 34.277 C 136.706 35.529, 133.354 40.570, 130.373 45.481 L 124.953 54.408 127.355 56.810 C 129.074 58.528, 130.365 59.019, 131.892 58.534 C 135.722 57.319, 155 44.070, 155 42.654 C 155 41.895, 152.769 39.187, 150.043 36.637 C 144.407 31.366, 141 30.708, 137.821 34.277 M 37.214 47.786 C 33.088 51.912, 29.811 57.064, 30.376 58.537 C 31.081 60.376, 52.550 70.977, 55.595 70.991 C 57.617 71, 61 68.204, 61 66.524 C 61 65.474, 54.930 57.982, 48.626 51.250 C 43.323 45.587, 40.323 44.677, 37.214 47.786 M 154.042 49.250 C 149.150 54.227, 140 65.601, 140 66.706 C 140 68.308, 143.506 71.001, 145.579 70.991 C 148.499 70.977, 169.942 60.314, 170.624 58.537 C 171.189 57.064, 167.912 51.912, 163.786 47.786 C 161.083 45.083, 157.628 45.603, 154.042 49.250 M 25.096 66.750 C 22.529 68.863, 19.985 79.385, 21.641 81.041 C 22.219 81.619, 28.306 82.541, 35.168 83.089 C 49.926 84.269, 53 83.594, 53 79.177 C 53 76.536, 52.123 75.849, 42.121 70.652 C 30.357 64.540, 28.341 64.078, 25.096 66.750 M 158.750 70.682 C 148.890 75.846, 148 76.550, 148 79.181 C 148 83.594, 151.078 84.268, 165.832 83.089 C 172.694 82.541, 178.781 81.619, 179.359 81.041 C 181.015 79.385, 178.471 68.863, 175.904 66.750 C 172.650 64.071, 170.378 64.592, 158.750 70.682 M 69.229 68.669 C 68.530 68.951, 67.307 70.439, 66.512 71.977 L 65.066 74.773 101.063 104.637 C 120.861 121.062, 137.618 134.626, 138.299 134.779 C 140.183 135.203, 142.929 132.760, 143.231 130.391 C 143.445 128.714, 136.081 122.116, 107.238 98.141 C 87.294 81.564, 70.869 68.036, 70.738 68.079 C 70.607 68.122, 69.928 68.388, 69.229 68.669 M 115.766 79.314 C 101.150 89.593, 100.144 90.501, 101.595 92.105 C 103.054 93.717, 104.151 93.098, 118.090 82.802 C 126.303 76.736, 133.237 71.425, 133.500 71 C 133.763 70.575, 133.420 69.782, 132.739 69.238 C 131.850 68.529, 127.050 71.379, 115.766 79.314 M 122.100 85.167 C 114.314 91.309, 108.096 96.789, 108.282 97.345 C 108.467 97.902, 109.323 98.801, 110.182 99.343 C 112.469 100.785, 139.531 77.345, 137.878 75.353 C 137.261 74.609, 136.643 74, 136.505 74 C 136.367 74, 129.885 79.025, 122.100 85.167 M 21.184 88.584 C 19.330 89.882, 19 91.070, 19 96.434 C 19 105.466, 19.509 105.693, 32.682 102.553 C 47.712 98.970, 49 98.367, 49 94.917 C 49 91.708, 47.308 91.018, 34.500 88.999 C 30.650 88.393, 26.570 87.707, 25.434 87.475 C 24.297 87.244, 22.385 87.743, 21.184 88.584 M 164.547 89.655 C 154.077 91.167, 152 92.068, 152 95.099 C 152 97.811, 155.310 99.523, 166.282 102.488 C 179.703 106.114, 180.313 105.952, 181.264 98.500 C 181.985 92.846, 181.882 92.370, 179.459 90.250 C 178.045 89.013, 176.351 88.049, 175.694 88.108 C 175.037 88.168, 170.021 88.864, 164.547 89.655 M 80 104.626 C 62.962 116.939, 62.282 117.857, 61.038 130.200 C 60.129 139.218, 58.753 141.354, 53.943 141.217 C 50.079 141.108, 43.163 145.441, 41.900 148.762 C 41.376 150.141, 40.272 151.052, 39.251 150.948 C 35.440 150.560, 34.680 150.910, 35.968 152.461 C 38.550 155.572, 40.842 155.213, 47.234 150.697 C 50.680 148.261, 54.021 146.457, 54.657 146.687 C 55.293 146.917, 57.445 146.423, 59.439 145.590 C 62.090 144.482, 63.587 142.923, 65.010 139.788 C 66.080 137.429, 66.966 134.740, 66.978 133.811 C 66.990 132.882, 68.800 130.042, 71 127.500 C 73.742 124.331, 75 121.939, 75 119.891 C 75 116.591, 76.440 114.999, 87.318 106.275 C 93.878 101.013, 94.070 100.735, 92.413 98.903 C 91.465 97.857, 90.647 97.008, 90.595 97.018 C 90.543 97.029, 85.775 100.452, 80 104.626 M 87.864 112.213 C 80.303 118.167, 76.931 121.541, 75.398 124.687 L 73.295 129 75.906 129 C 77.781 129, 81.975 126.024, 90.783 118.444 C 97.529 112.638, 102.788 107.466, 102.469 106.950 C 102.150 106.433, 101.065 105.570, 100.058 105.031 C 98.559 104.229, 96.347 105.532, 87.864 112.213 M 146.106 122.688 C 143.986 125.259, 143.366 126.736, 144.055 127.566 C 146.387 130.376, 140.944 136.960, 137.411 135.604 C 135.794 134.984, 129.070 141.661, 129.027 143.929 C 128.991 145.821, 131.252 152.016, 131.951 151.942 C 132.591 151.874, 158.338 121.153, 158.833 119.866 C 159.017 119.390, 156.912 119, 154.156 119 C 149.597 119, 148.871 119.333, 146.106 122.688 M 66.986 121.517 C 65.888 122.840, 65.944 123.372, 67.329 124.757 C 69.276 126.705, 71.399 125.304, 70.844 122.439 C 70.376 120.027, 68.579 119.597, 66.986 121.517 M 146.515 136.753 L 132.656 153.378 138.078 158.178 C 141.060 160.818, 143.762 162.983, 144.083 162.989 C 144.579 162.998, 164.629 139.556, 170.410 132.206 C 172.314 129.786, 172.313 129.744, 170.278 128.130 C 169.147 127.234, 166.456 125.066, 164.298 123.314 L 160.374 120.128 146.515 136.753 M 49.476 124.396 C 46.332 125.766, 44.021 129.503, 43.971 133.297 C 43.951 134.821, 42.101 136.836, 37.971 139.834 C 32.229 144.003, 31.084 146.008, 32.854 148.797 C 33.511 149.834, 33.935 149.783, 34.961 148.547 C 35.667 147.696, 35.910 147, 35.500 147 C 35.090 147, 35.293 146.352, 35.951 145.559 C 36.608 144.767, 37.793 144.367, 38.584 144.671 C 39.382 144.977, 41.978 143.620, 44.413 141.625 C 48.199 138.522, 48.789 137.529, 48.700 134.398 C 48.573 129.925, 51.073 127.778, 55.931 128.190 C 58.932 128.445, 59.453 128.138, 60.094 125.740 C 60.808 123.071, 60.719 123.001, 56.664 123.039 C 54.374 123.061, 51.139 123.671, 49.476 124.396 M 103.547 138.458 C 105.428 142.961, 105.391 146.996, 103.443 149.777 C 100.287 154.284, 97.245 151.860, 96.326 144.106 C 95.994 141.298, 95.385 139, 94.975 139 C 94.564 139, 93.458 140.623, 92.517 142.606 C 90.866 146.084, 90.870 147.451, 92.553 155.661 C 93.079 158.227, 92.810 159.032, 91.123 159.934 C 88.025 161.592, 84.569 157.906, 85.387 153.815 C 86.110 150.202, 84.536 150.401, 81.634 154.289 C 79.829 156.707, 79.756 157.432, 80.849 162.166 C 83.320 172.871, 90.798 178.501, 101.630 177.811 C 106.822 177.480, 108.590 176.873, 111.713 174.349 C 116.527 170.458, 118.741 166.663, 119.501 160.995 L 120.105 156.500 118.520 159.250 C 116.875 162.107, 112.768 163.052, 111.427 160.883 C 111.048 160.268, 111.312 157.369, 112.014 154.441 C 113.061 150.076, 113.053 148.542, 111.969 145.926 C 110.409 142.159, 106.538 137.358, 103.939 135.967 C 102.190 135.031, 102.170 135.162, 103.547 138.458" stroke="none" fill="#0b0b0b" fill-rule="evenodd"/></svg>