<svg id="Layer_1" data-name="Layer 1" xmlns="http://www.w3.org/2000/svg" viewBox="0 0 45 73.284" width="45" height="73.284"><defs><style>.cls-1{fill:#343434;}.cls-2{fill:#8c8c8c;}.cls-3{fill:#3c3c3b;}.cls-4{fill:#141414;}.cls-5{fill:#393939;}</style></defs><title>ethereum-eth</title><path class="cls-1" points="155.65 0 152.25 11.56 152.25 346.87 155.65 350.26 311.3 258.26 155.65 0" d="m22.494 0 -0.49 1.672v48.456l0.49 0.49L44.989 37.323z"/><path class="cls-2" points="155.65 0 0 258.26 155.65 350.27 155.65 187.51 155.65 0" d="M22.494 0 0 37.322l22.494 13.296z"/><path class="cls-3" points="155.65 379.74 153.73 382.07 153.73 501.52 155.65 507.11 311.39 287.78 155.65 379.74" d="m22.494 54.877 -0.279 0.336v17.262l0.279 0.808L45 41.589z"/><path class="cls-2" points="155.65 507.11 155.65 379.73 0 287.78 155.65 507.11" d="M22.494 73.284V54.877L0 41.588z"/><path class="cls-4" points="155.65 350.26 311.3 258.26 155.65 187.51 155.65 350.26" d="M22.494 50.616 44.989 37.321l-22.494 -10.223z"/><path class="cls-5" points="0 258.26 155.65 350.26 155.65 187.51 0 258.26" d="m0 37.322 22.494 13.295V27.099z"/></svg>